ply
format ascii 1.0
comment Created by Blender 2.83.5 - www.blender.org, source file: 'EntranceExit.blend'
element vertex 32
property float x
property float y
property float z
property float nx
property float ny
property float nz
property float s
property float t
element face 9
property list uchar uint vertex_indices
end_header
-0.698686 0.126491 0.698686 0.000000 1.000000 -0.000000 -0.646703 0.000000
0.698686 0.126491 0.698686 0.000000 1.000000 -0.000000 0.646703 0.000000
0.698686 0.126491 -0.698686 0.000000 1.000000 -0.000000 0.646703 2.000000
-0.698686 0.126491 -0.698686 0.000000 1.000000 -0.000000 -0.646703 2.000000
0.698686 0.126491 -0.698686 0.447213 0.894427 -0.000000 0.875000 2.000000
0.698686 0.126491 0.698686 0.447213 0.894427 -0.000000 0.875000 0.000000
0.978161 -0.013246 0.698686 0.447213 0.894427 -0.000000 1.000000 0.000000
0.978161 -0.013246 -0.698686 0.447213 0.894427 -0.000000 1.000000 2.000000
-0.698686 0.126491 0.698686 -0.447213 0.894427 -0.000000 1.000000 0.000000
-0.698686 0.126491 -0.698686 -0.447213 0.894427 -0.000000 1.000000 2.000000
-0.978161 -0.013246 -0.698686 -0.447213 0.894427 -0.000000 0.875000 2.000000
-0.978161 -0.013246 0.698686 -0.447213 0.894427 -0.000000 0.875000 0.000000
0.698686 0.126491 0.698686 0.000000 0.894427 0.447213 0.857143 -0.009843
-0.698686 0.126491 0.698686 0.000000 0.894427 0.447213 0.857143 1.990157
-0.698686 -0.013246 0.978161 0.000000 0.894427 0.447213 1.000000 1.990157
0.698686 -0.013246 0.978161 0.000000 0.894427 0.447213 1.000000 -0.009843
-0.698686 0.126491 -0.698686 0.000000 0.894427 -0.447214 0.955357 1.990157
0.698686 0.126491 -0.698686 0.000000 0.894427 -0.447214 0.955357 -0.009843
0.698686 -0.013246 -0.978161 0.000000 0.894427 -0.447214 0.812500 -0.009843
-0.698686 -0.013246 -0.978161 0.000000 0.894427 -0.447214 0.812500 1.990157
0.698686 0.126491 -0.698686 0.408248 0.816497 -0.408248 0.486681 0.264355
0.978161 -0.013246 -0.698686 0.408248 0.816497 -0.408248 0.486681 0.006252
0.698686 -0.013246 -0.978161 0.408248 0.816497 -0.408248 0.658750 0.264355
-0.698686 0.126491 -0.698686 -0.408248 0.816497 -0.408248 0.486681 0.266946
-0.698686 -0.013246 -0.978161 -0.408248 0.816497 -0.408248 0.658750 0.266946
-0.978161 -0.013246 -0.698686 -0.408248 0.816497 -0.408248 0.486681 0.008843
-0.698686 0.126491 0.698686 -0.408248 0.816497 0.408248 0.484664 0.266946
-0.978161 -0.013246 0.698686 -0.408248 0.816497 0.408248 0.484665 0.008843
-0.698686 -0.013246 0.978161 -0.408248 0.816497 0.408248 0.656733 0.266946
0.698686 0.126491 0.698686 0.408248 0.816497 0.408248 0.484664 0.264355
0.698686 -0.013246 0.978161 0.408248 0.816497 0.408248 0.656733 0.264355
0.978161 -0.013246 0.698686 0.408248 0.816497 0.408248 0.484664 0.006252
4 0 1 2 3
4 4 5 6 7
4 8 9 10 11
4 12 13 14 15
4 16 17 18 19
3 20 21 22
3 23 24 25
3 26 27 28
3 29 30 31
