ply
format ascii 1.0
comment Created by Blender 2.83.5 - www.blender.org, source file: 'Switch.blend'
comment CollisionLayers CollisionLayersCadetSwitch
element vertex 8
property float x
property float y
property float z
property float nx
property float ny
property float nz
property float s
property float t
element face 9
property list uchar uint vertex_indices
end_header
-0.781076 0.000000 0.781076 -0.377117 0.845882 0.377117 0.000000 0.000000
-0.576787 0.182150 -0.576787 -0.277779 0.919584 -0.277779 0.130774 0.869226
-0.781076 0.000000 -0.781076 -0.377117 0.845882 -0.377117 0.000000 1.000000
0.576787 0.182150 -0.576787 0.277779 0.919584 -0.277779 0.869226 0.869226
-0.576787 0.182150 0.576787 -0.277779 0.919584 0.277779 0.130774 0.130774
0.576787 0.182150 0.576787 0.277779 0.919584 0.277779 0.869226 0.130774
0.781076 0.000000 0.781076 0.377117 0.845882 0.377117 1.000000 0.000000
0.781076 0.000000 -0.781076 0.377117 0.845882 -0.377117 1.000000 1.000000
3 0 1 2
4 3 1 4 5
3 6 4 0
3 2 3 7
3 7 5 6
3 0 4 1
3 6 5 4
3 2 1 3
3 7 3 5
