ply
format ascii 1.0
comment Created by Blender 2.83.5 - www.blender.org, source file: 'PermanantSwitch.blend'
comment CollisionLayers CollisionLayersCadetSwitch
element vertex 9
property float x
property float y
property float z
property float nx
property float ny
property float nz
property float s
property float t
element face 3
property list uchar uint vertex_indices
end_header
-0.855500 -0.000000 0.493923 -0.000000 0.529999 0.847998 1.000000 1.000000
0.855500 -0.000000 0.493923 -0.000000 0.529999 0.847998 0.000000 1.000000
0.000000 0.790277 0.000000 -0.000000 0.529999 0.847998 0.500000 0.500000
0.000000 0.000000 -0.987846 -0.734388 0.529999 -0.423999 1.000000 1.000000
-0.855500 -0.000000 0.493923 -0.734388 0.529999 -0.423999 0.000000 1.000000
0.000000 0.790277 0.000000 -0.734388 0.529999 -0.423999 0.500000 0.500000
0.855500 -0.000000 0.493923 0.734388 0.529999 -0.423999 1.000000 1.000000
0.000000 0.000000 -0.987846 0.734388 0.529999 -0.423999 0.000000 1.000000
0.000000 0.790277 0.000000 0.734388 0.529999 -0.423999 0.500000 0.500000
3 0 1 2
3 3 4 5
3 6 7 8
