ply
format ascii 1.0
comment Created by Blender 2.83.5 - www.blender.org, source file: 'RobotCollision.blend'
comment CollisionLayers CollisionLayersRobot
element vertex 45
property float x
property float y
property float z
property float nx
property float ny
property float nz
property float s
property float t
element face 16
property list uchar uint vertex_indices
end_header
0.695009 1.798933 0.583555 0.762180 0.000000 0.647365 2.981698 2.430832
0.454544 1.798933 0.866668 0.762180 0.000000 0.647365 1.580263 0.780843
0.454544 -0.001067 0.866668 0.762180 0.000000 0.647365 1.580263 0.780843
0.695009 -0.001067 0.583555 0.762180 0.000000 0.647365 2.981698 2.430832
-0.014112 1.798933 -0.719563 0.367848 0.000000 -0.929886 -1.398605 1.931390
0.819538 1.798933 -0.389785 0.367848 0.000000 -0.929886 3.459934 0.009431
0.819538 -0.001067 -0.389785 0.367848 0.000000 -0.929886 3.459934 0.009431
-0.014112 -0.001067 -0.719563 0.367848 0.000000 -0.929886 -1.398605 1.931390
0.454544 1.798933 0.866668 0.009049 0.000000 0.999959 3.164422 -0.085494
-0.424119 1.798933 0.874620 0.009049 0.000000 0.999959 -1.956457 -0.131837
-0.424119 -0.001067 0.874620 0.009049 0.000000 0.999959 -1.956457 -0.131837
0.454544 -0.001067 0.866668 0.009049 0.000000 0.999959 3.164422 -0.085494
-0.676526 1.798933 0.604886 -0.903062 0.000000 0.429510 0.248253 -0.416253
-0.896156 1.798933 0.143105 -0.903062 0.000000 0.429510 -1.031758 2.275022
-0.896156 -0.001067 0.143105 -0.903062 0.000000 0.429510 -1.031758 2.275022
-0.676526 -0.001067 0.604886 -0.903062 0.000000 0.429510 0.248253 -0.416253
-0.896156 1.798933 0.143105 0.000000 1.000000 0.000000 -1.031758 2.275022
-0.676526 1.798933 0.604886 0.000000 1.000000 0.000000 0.520530 1.922855
-0.014112 1.798933 -0.719563 0.000000 1.000000 0.000000 2.574167 2.005648
0.900173 1.798933 0.115168 0.000000 1.000000 0.000000 1.392746 1.336354
0.819538 1.798933 -0.389785 0.000000 1.000000 0.000000 3.459934 0.009431
-0.424119 1.798933 0.874620 -0.000000 1.000000 -0.000000 -1.956457 -0.131837
0.695009 1.798933 0.583555 -0.000000 1.000000 -0.000000 2.981698 2.430832
0.454544 1.798933 0.866668 -0.000000 1.000000 -0.000000 1.580263 0.780843
-0.831263 1.798933 -0.364111 0.000000 1.000000 0.000000 0.039510 4.203863
0.900173 1.798933 0.115168 0.915982 0.000000 0.401220 1.949677 2.338829
0.695009 1.798933 0.583555 0.915982 0.000000 0.401220 0.753975 -0.390950
0.695009 -0.001067 0.583555 0.915982 0.000000 0.401220 0.753975 -0.390950
0.900173 -0.001067 0.115168 0.915982 0.000000 0.401220 1.949677 2.338829
-0.831263 1.798933 -0.364111 -0.398886 0.000000 -0.917001 -2.188212 -0.065938
-0.014112 1.798933 -0.719563 -0.398886 0.000000 -0.917001 2.574167 2.005648
-0.014112 -0.001067 -0.719563 -0.398886 0.000000 -0.917001 2.574167 2.005648
-0.831263 -0.001067 -0.364111 -0.398886 0.000000 -0.917001 -2.188212 -0.065938
-0.424119 1.798933 0.874620 -0.730171 0.000000 0.683265 1.991562 0.350836
-0.676526 1.798933 0.604886 -0.730171 0.000000 0.683265 0.520530 1.922855
-0.676526 -0.001067 0.604886 -0.730171 0.000000 0.683265 0.520530 1.922855
-0.424119 -0.001067 0.874620 -0.730171 0.000000 0.683265 1.991562 0.350836
-0.896156 1.798933 0.143105 -0.991915 0.000000 -0.126906 -0.338689 1.247794
-0.831263 1.798933 -0.364111 -0.991915 0.000000 -0.126906 0.039510 4.203863
-0.831263 -0.001067 -0.364111 -0.991915 0.000000 -0.126906 0.039510 4.203863
-0.896156 -0.001067 0.143105 -0.991915 0.000000 -0.126906 -0.338689 1.247794
0.819538 1.798933 -0.389785 0.987489 0.000000 -0.157690 0.922805 4.279233
0.900173 1.798933 0.115168 0.987489 0.000000 -0.157690 1.392746 1.336354
0.900173 -0.001067 0.115168 0.987489 0.000000 -0.157690 1.392746 1.336354
0.819538 -0.001067 -0.389785 0.987489 0.000000 -0.157690 0.922805 4.279233
4 0 1 2 3
4 4 5 6 7
4 8 9 10 11
4 12 13 14 15
3 16 17 18
3 19 20 18
3 21 22 17
3 22 19 18
3 23 22 21
3 17 22 18
3 18 24 16
4 25 26 27 28
4 29 30 31 32
4 33 34 35 36
4 37 38 39 40
4 41 42 43 44
