ply
format ascii 1.0
comment Created by Blender 2.83.5 - www.blender.org, source file: 'RobotCollision.blend'
comment CollisionLayers CollisionLayersRobot
element vertex 35
property float x
property float y
property float z
property float nx
property float ny
property float nz
element face 12
property list uchar uint vertex_indices
end_header
0.916787 1.797782 0.359369 0.654782 0.000000 0.755818
0.225039 1.797782 0.958645 0.654782 0.000000 0.755818
0.225039 -0.019444 0.958645 0.654782 0.000000 0.755818
0.916787 -0.019444 0.359369 0.654782 0.000000 0.755818
-0.246243 1.797782 0.953419 -0.671382 0.000000 0.741112
-0.924531 1.797782 0.338950 -0.671382 0.000000 0.741112
-0.924531 -0.019444 0.338951 -0.671382 0.000000 0.741112
-0.246243 -0.019444 0.953419 -0.671382 0.000000 0.741112
0.225039 -0.019444 0.958645 -0.011089 0.000000 0.999938
0.225039 1.797782 0.958645 -0.011089 0.000000 0.999938
-0.246243 1.797782 0.953419 -0.011089 0.000000 0.999938
-0.246243 -0.019444 0.953419 -0.011089 0.000000 0.999938
-0.924531 1.797782 0.338950 -0.991311 -0.000000 -0.131537
-0.804144 1.797782 -0.568328 -0.991311 -0.000000 -0.131537
-0.804144 -0.019444 -0.568328 -0.991311 -0.000000 -0.131537
-0.924531 -0.019444 0.338951 -0.991311 -0.000000 -0.131537
-0.804144 1.797782 -0.568328 -0.454876 -0.000000 -0.890555
0.010919 1.797782 -0.984645 -0.454876 -0.000000 -0.890555
0.010919 -0.019444 -0.984644 -0.454876 -0.000000 -0.890555
-0.804144 -0.019444 -0.568328 -0.454876 -0.000000 -0.890555
0.010919 1.797782 -0.984645 0.474513 -0.000000 -0.880248
0.816549 1.797782 -0.550355 0.474513 -0.000000 -0.880248
0.816549 -0.019444 -0.550355 0.474513 -0.000000 -0.880248
0.010919 -0.019444 -0.984644 0.474513 -0.000000 -0.880248
0.225039 1.797782 0.958645 -0.000000 1.000000 0.000000
0.816549 1.797782 -0.550355 -0.000000 1.000000 0.000000
-0.804144 1.797782 -0.568328 -0.000000 1.000000 0.000000
0.816549 -0.019444 -0.550355 0.993985 -0.000000 -0.109522
0.816549 1.797782 -0.550355 0.993985 -0.000000 -0.109522
0.916787 1.797782 0.359369 0.993985 -0.000000 -0.109522
0.916787 -0.019444 0.359369 0.993985 -0.000000 -0.109522
0.916787 1.797782 0.359369 0.000000 1.000000 0.000000
0.010919 1.797782 -0.984645 0.000000 1.000000 -0.000000
-0.924531 1.797782 0.338950 0.000000 1.000000 0.000000
-0.246243 1.797782 0.953419 0.000000 1.000000 0.000000
4 0 1 2 3
4 4 5 6 7
4 8 9 10 11
4 12 13 14 15
4 16 17 18 19
4 20 21 22 23
3 24 25 26
4 27 28 29 30
3 24 31 25
3 25 32 26
3 26 33 34
3 34 24 26
