ply
format ascii 1.0
comment Created by Blender 2.83.5 - www.blender.org, source file: 'RocketCollision.blend'
element vertex 59
property float x
property float y
property float z
property float nx
property float ny
property float nz
element face 46
property list uchar uint vertex_indices
end_header
-0.061031 1.136170 -0.913588 -0.997375 -0.039827 -0.060030
-0.061020 2.096446 -0.291387 -1.000000 0.000000 0.000000
-0.061035 1.478125 -1.140454 -0.999115 -0.036409 -0.019593
-0.827984 1.136170 0.534495 -0.687887 -0.042848 -0.724509
-0.350007 2.096446 0.136157 -0.640187 0.000000 -0.768181
-0.169347 1.282965 -0.014402 -0.640187 0.000000 -0.768181
0.000000 0.829361 -1.191342 -0.996734 -0.070040 0.039979
-0.918079 1.478125 0.780751 0.624500 -0.039308 0.779992
-0.999263 0.829361 0.762822 0.678213 -0.071749 0.731315
-0.743800 1.136170 0.635510 0.588641 -0.042848 0.807245
-1.233655 0.890075 0.918176 -0.563341 -0.068026 -0.823389
-0.999263 0.829361 0.762822 -0.597064 -0.071749 -0.798944
-1.183612 -0.000000 0.916455 -0.557543 -0.029725 -0.829585
-1.194326 0.890075 0.965368 0.708335 -0.068026 0.702567
-1.183612 -0.000000 0.916455 0.715476 -0.029725 0.697958
0.743800 1.136170 0.635510 -0.588641 -0.042848 0.807245
0.265823 2.096446 0.237173 -0.640187 0.000000 0.768181
0.085163 1.282965 0.086614 -0.640187 0.000000 0.768181
1.002263 1.478125 0.679736 0.654653 -0.039308 -0.754875
0.999263 0.829361 0.762822 0.597064 -0.071749 -0.798944
0.827984 1.136170 0.534495 0.687887 -0.042848 -0.724509
0.061031 1.136170 -0.913588 0.997375 -0.039827 -0.060030
0.061020 2.096446 -0.291387 1.000000 0.000000 0.000000
0.061016 1.282965 -0.056214 1.000000 0.000000 0.000000
-0.026008 0.890075 -1.470862 -0.994720 -0.066286 0.078127
0.000000 0.227445 -1.431317 -0.995758 -0.033967 0.085238
0.350007 2.096446 0.136157 0.640187 0.000000 -0.768181
0.000000 0.829361 -1.191342 0.996734 -0.070040 0.039979
0.061035 1.478125 -1.140454 0.999115 -0.036409 -0.019593
0.999263 0.829361 0.762822 -0.678213 -0.071749 0.731315
0.918079 1.478125 0.780751 -0.624500 -0.039308 0.779992
1.233655 0.890075 0.918176 0.563341 -0.068026 -0.823389
1.183612 -0.000000 0.916453 0.557543 -0.029725 -0.829585
1.183612 -0.000000 0.916453 -0.715476 -0.029725 0.697958
1.194326 0.890075 0.965368 -0.708335 -0.068026 0.702567
0.000000 0.227445 -1.431317 0.995758 -0.033967 0.085238
0.026008 0.890075 -1.470862 0.994720 -0.066286 0.078127
-1.002263 1.478125 0.679736 -0.654653 -0.039308 -0.754875
-0.265823 2.096446 0.237173 0.640187 0.000000 0.768181
-0.085163 1.282965 0.086614 0.640187 0.000000 0.768181
0.000000 0.817042 0.000000 0.000000 -0.999969 0.000000
0.058564 1.300408 -0.294423 0.188421 -0.258827 -0.947356
0.249599 1.300408 -0.166777 0.803125 -0.258827 -0.536607
0.058727 1.873398 -0.295242 0.195074 -0.001434 -0.980773
0.250294 1.873398 -0.167241 0.831446 -0.001434 -0.555559
0.294423 1.300408 0.058564 0.947356 -0.258827 0.188421
0.166777 1.300408 0.249599 0.536607 -0.258827 0.803125
0.295242 1.873398 0.058727 0.980773 -0.001434 0.195074
-0.058564 1.300408 0.294423 -0.188421 -0.258827 0.947356
0.167241 1.873398 0.250294 0.555559 -0.001434 0.831446
-0.249599 1.300408 0.166777 -0.803125 -0.258827 0.536607
-0.058727 1.873398 0.295242 -0.195074 -0.001434 0.980773
-0.294422 1.300408 -0.058564 -0.947356 -0.258827 -0.188421
-0.166777 1.300408 -0.249599 -0.536607 -0.258827 -0.803125
-0.250294 1.873398 0.167241 -0.831446 -0.001434 0.555559
-0.295242 1.873398 -0.058727 -0.980773 -0.001434 -0.195074
-0.167241 1.873398 -0.250294 -0.555559 -0.001434 -0.831446
0.169347 1.282965 -0.014402 0.640187 0.000000 -0.768181
-0.061016 1.282965 -0.056214 -1.000000 0.000000 0.000000
3 0 1 2
3 3 4 5
3 2 6 0
3 7 8 9
3 10 11 12
3 8 13 14
3 15 16 17
3 18 19 20
3 21 22 23
3 6 24 25
3 20 26 18
3 27 28 21
3 29 30 15
3 31 32 19
3 29 33 34
3 27 35 36
3 37 11 10
3 38 9 39
3 40 41 42
4 43 44 42 41
3 40 45 46
4 44 47 45 42
3 48 40 46
4 47 49 46 45
3 40 48 50
4 49 51 48 46
3 40 52 53
4 51 54 50 48
3 40 50 52
3 40 53 41
4 54 55 52 50
4 55 56 53 52
4 56 43 41 53
3 40 42 45
3 3 37 4
3 2 24 6
3 7 13 8
3 15 30 16
3 18 31 19
3 20 57 26
3 27 36 28
3 29 34 30
3 37 3 11
3 38 7 9
3 0 58 1
3 21 28 22
