ply
format ascii 1.0
comment Created by Blender 2.83.5 - www.blender.org, source file: ''
element vertex 32
property float x
property float y
property float z
property float nx
property float ny
property float nz
property float s
property float t
element face 13
property list uchar uint vertex_indices
end_header
1.000000 0.000000 1.000000 0.000000 -0.000000 1.000000 0.625000 0.500000
-1.000000 0.000000 1.000000 0.000000 -0.000000 1.000000 0.875000 0.500000
-1.000000 -2.000000 1.000000 0.000000 -0.000000 1.000000 0.875000 0.750000
1.000000 -2.000000 1.000000 0.000000 -0.000000 1.000000 0.625000 0.750000
-1.000000 0.000000 0.000000 0.000000 1.000000 0.000000 0.500000 0.250000
-1.000000 0.000000 1.000000 0.000000 1.000000 0.000000 0.625000 0.250000
1.000000 0.000000 1.000000 0.000000 1.000000 0.000000 0.625000 0.500000
1.000000 0.000000 0.000000 0.000000 1.000000 0.000000 0.500000 0.500000
-1.000000 -1.000000 0.000000 -0.000000 0.000000 -1.000000 0.437500 0.250000
-1.000000 0.000000 0.000000 -0.000000 0.000000 -1.000000 0.500000 0.250000
1.000000 0.000000 0.000000 -0.000000 0.000000 -1.000000 0.500000 0.500000
1.000000 -1.000000 0.000000 -0.000000 0.000000 -1.000000 0.437500 0.500000
-1.000000 -1.000000 -1.000000 0.000000 1.000000 0.000000 0.406250 0.250000
-1.000000 -1.000000 0.000000 0.000000 1.000000 0.000000 0.437500 0.250000
1.000000 -1.000000 0.000000 0.000000 1.000000 0.000000 0.437500 0.500000
1.000000 -1.000000 -1.000000 0.000000 1.000000 0.000000 0.406250 0.500000
-1.000000 -2.000000 -1.000000 -0.000000 0.000000 -1.000000 0.375000 0.250000
-1.000000 -1.000000 -1.000000 -0.000000 0.000000 -1.000000 0.406250 0.250000
1.000000 -1.000000 -1.000000 -0.000000 0.000000 -1.000000 0.406250 0.500000
1.000000 -2.000000 -1.000000 -0.000000 0.000000 -1.000000 0.375000 0.500000
1.000000 -2.000000 -1.000000 1.000000 0.000000 0.000000 0.375000 0.500000
1.000000 -1.000000 -1.000000 1.000000 0.000000 0.000000 0.406250 0.500000
1.000000 -1.000000 0.000000 1.000000 0.000000 0.000000 0.437500 0.500000
-1.000000 0.000000 1.000000 -1.000000 0.000000 0.000000 0.625000 0.250000
-1.000000 0.000000 0.000000 -1.000000 0.000000 0.000000 0.500000 0.250000
-1.000000 -1.000000 0.000000 -1.000000 0.000000 0.000000 0.437500 0.250000
1.000000 0.000000 0.000000 1.000000 -0.000000 0.000000 0.500000 0.500000
1.000000 0.000000 1.000000 1.000000 -0.000000 0.000000 0.625000 0.500000
1.000000 -2.000000 1.000000 1.000000 0.000000 -0.000000 0.625000 0.750000
-1.000000 -1.000000 -1.000000 -1.000000 0.000000 -0.000000 0.406250 0.250000
-1.000000 -2.000000 -1.000000 -1.000000 0.000000 -0.000000 0.375000 0.250000
-1.000000 -2.000000 1.000000 -1.000000 -0.000000 -0.000000 0.875000 0.750000
4 0 1 2 3
4 4 5 6 7
4 8 9 10 11
4 12 13 14 15
4 16 17 18 19
3 20 21 22
3 23 24 25
3 26 27 22
3 27 28 22
3 28 20 22
3 29 30 25
3 30 31 25
3 31 23 25
