ply
format ascii 1.0
comment Created by Blender 2.83.5 - www.blender.org, source file: ''
element vertex 52
property float x
property float y
property float z
property float nx
property float ny
property float nz
property float s
property float t
property uchar red
property uchar green
property uchar blue
property uchar alpha
element face 24
property list uchar uint vertex_indices
end_header
-1.000000 0.000000 -1.000000 0.000000 -0.000000 -1.000000 1.000000 1.000000 128 71 140 255
0.000000 -0.700000 -1.000000 0.000000 -0.000000 -1.000000 0.500000 0.650000 128 71 140 255
-0.400000 -1.000000 -1.000000 0.000000 -0.000000 -1.000000 0.700000 0.500000 128 71 140 255
0.400000 -1.000000 1.000000 -1.000000 0.000000 0.000000 0.750000 0.670000 185 47 169 255
0.400000 -1.000000 -1.000000 -1.000000 0.000000 0.000000 0.750000 0.670000 185 47 169 255
0.400000 -2.000000 -1.000000 -1.000000 0.000000 0.000000 0.750000 0.170000 185 47 169 255
0.400000 -2.000000 1.000000 -1.000000 0.000000 0.000000 0.750000 0.170000 185 47 169 255
-1.000000 -2.000000 -1.000000 -0.000000 0.000000 -1.000000 1.000000 0.000000 128 71 140 255
-0.400000 -2.000000 -1.000000 -0.000000 0.000000 -1.000000 0.700000 0.000000 128 71 140 255
1.000000 -2.000000 -1.000000 -0.000000 -0.000000 -1.000000 0.000000 0.000000 128 71 140 255
0.400000 -1.000000 -1.000000 -0.000000 -0.000000 -1.000000 0.300000 0.500000 128 71 140 255
1.000000 0.000000 -1.000000 -0.000000 -0.000000 -1.000000 0.000000 1.000000 128 71 140 255
0.000000 0.000000 -1.000000 0.000000 -0.000000 -1.000000 0.500000 1.000000 128 71 140 255
-0.400000 -2.000000 1.000000 1.000000 0.000000 0.000000 0.750000 0.170000 185 47 169 255
-0.400000 -2.000000 -1.000000 1.000000 0.000000 0.000000 0.750000 0.170000 185 47 169 255
-0.400000 -1.000000 -1.000000 1.000000 0.000000 0.000000 0.750000 0.670000 185 47 169 255
-0.400000 -1.000000 1.000000 1.000000 0.000000 0.000000 0.750000 0.670000 185 47 169 255
-0.400000 -1.000000 1.000000 0.600000 -0.800000 0.000000 0.300000 0.750000 185 47 169 255
-0.400000 -1.000000 -1.000000 0.600000 -0.800000 0.000000 0.300000 0.750000 185 47 169 255
0.000000 -0.700000 -1.000000 0.600000 -0.800000 0.000000 0.500000 0.750000 185 47 169 255
0.000000 -0.700000 1.000000 0.600000 -0.800000 0.000000 0.500000 0.750000 185 47 169 255
0.400000 -2.000000 1.000000 -0.000000 1.000000 0.000000 0.700000 0.750000 185 47 169 255
0.400000 -2.000000 -1.000000 -0.000000 1.000000 0.000000 0.700000 0.750000 185 47 169 255
-0.400000 -2.000000 -1.000000 -0.000000 1.000000 0.000000 0.300000 0.750000 185 47 169 255
-0.400000 -2.000000 1.000000 -0.000000 1.000000 0.000000 0.300000 0.750000 185 47 169 255
-1.000000 0.000000 1.000000 0.000000 0.000000 1.000000 1.000000 1.000000 128 71 140 255
0.000000 -0.700000 1.000000 0.000000 0.000000 1.000000 0.500000 0.650000 128 71 140 255
0.000000 0.000000 1.000000 0.000000 0.000000 1.000000 0.500000 1.000000 128 71 140 255
-1.000000 -2.000000 1.000000 0.000000 0.000000 1.000000 1.000000 0.000000 128 71 140 255
-0.400000 -1.000000 1.000000 0.000000 0.000000 1.000000 0.700000 0.500000 128 71 140 255
0.400000 -1.000000 1.000000 -0.000000 0.000000 1.000000 0.300000 0.500000 128 71 140 255
1.000000 -2.000000 1.000000 -0.000000 0.000000 1.000000 0.000000 0.000000 128 71 140 255
1.000000 0.000000 1.000000 -0.000000 0.000000 1.000000 0.000000 1.000000 128 71 140 255
1.000000 -2.000000 -1.000000 1.000000 0.000000 0.000000 0.000000 0.000000 128 71 140 255
1.000000 0.000000 -1.000000 1.000000 0.000000 0.000000 0.000000 1.000000 128 71 140 255
1.000000 0.000000 1.000000 1.000000 0.000000 0.000000 0.000000 1.000000 128 71 140 255
1.000000 -2.000000 1.000000 1.000000 0.000000 0.000000 0.000000 0.000000 128 71 140 255
1.000000 0.000000 -1.000000 0.000000 1.000000 0.000000 0.000000 1.000000 128 71 140 255
-1.000000 0.000000 -1.000000 0.000000 1.000000 0.000000 0.000000 0.000000 255 255 255 255
-1.000000 0.000000 1.000000 0.000000 1.000000 0.000000 0.000000 0.000000 255 255 255 255
1.000000 0.000000 1.000000 0.000000 1.000000 0.000000 0.000000 1.000000 128 71 140 255
-1.000000 -2.000000 -1.000000 -1.000000 -0.000000 0.000000 1.000000 0.000000 128 71 140 255
-1.000000 -2.000000 1.000000 -1.000000 -0.000000 0.000000 1.000000 0.000000 128 71 140 255
-1.000000 0.000000 1.000000 -1.000000 -0.000000 0.000000 1.000000 1.000000 128 71 140 255
-1.000000 0.000000 -1.000000 -1.000000 -0.000000 0.000000 0.000000 0.000000 255 255 255 255
-0.400000 -2.000000 1.000000 0.000000 0.000000 1.000000 0.700000 0.000000 128 71 140 255
0.400000 -2.000000 1.000000 0.000000 0.000000 1.000000 0.300000 0.000000 128 71 140 255
0.400000 -2.000000 -1.000000 0.000000 0.000000 -1.000000 0.300000 0.000000 128 71 140 255
0.000000 -0.700000 1.000000 -0.600000 -0.800000 0.000000 0.500000 0.750000 185 47 169 255
0.000000 -0.700000 -1.000000 -0.600000 -0.800000 0.000000 0.500000 0.750000 185 47 169 255
0.400000 -1.000000 -1.000000 -0.600000 -0.800000 0.000000 0.700000 0.750000 185 47 169 255
0.400000 -1.000000 1.000000 -0.600000 -0.800000 0.000000 0.700000 0.750000 185 47 169 255
3 0 1 2
4 3 4 5 6
3 7 2 8
3 9 10 11
3 11 1 12
4 13 14 15 16
4 17 18 19 20
4 21 22 23 24
3 25 26 27
3 28 29 25
3 30 31 32
3 26 32 27
4 33 34 35 36
4 37 38 39 40
4 41 42 43 44
3 25 29 26
3 28 45 29
3 30 46 31
3 26 30 32
3 0 12 1
3 7 0 2
3 9 47 10
3 11 10 1
4 48 49 50 51
