ply
format ascii 1.0
comment Created by Blender 2.83.5 - www.blender.org, source file: ''
element vertex 6
property float x
property float y
property float z
property float nx
property float ny
property float nz
property float s
property float t
property uchar red
property uchar green
property uchar blue
property uchar alpha
element face 4
property list uchar uint vertex_indices
end_header
1.000000 0.000000 -1.000000 0.000000 1.000000 0.000000 1.000000 1.000000 128 71 140 255
0.000000 0.000000 0.000000 0.000000 1.000000 0.000000 0.500000 0.500000 128 71 140 255
1.000000 0.000000 1.000000 0.000000 1.000000 0.000000 1.000000 0.000000 128 71 140 255
-1.000000 0.000000 -1.000000 -0.000000 1.000000 0.000000 0.000000 1.000000 128 71 140 255
-1.000000 0.000000 0.000000 0.000000 1.000000 0.000000 0.000000 0.500000 128 71 140 255
0.000000 0.000000 1.000000 0.000000 1.000000 0.000000 0.500000 0.000000 128 71 140 255
3 0 1 2
3 0 3 1
3 3 4 1
3 1 5 2
