ply
format ascii 1.0
comment Created by Blender 2.83.5 - www.blender.org, source file: ''
element vertex 16
property float x
property float y
property float z
property float nx
property float ny
property float nz
property float s
property float t
property uchar red
property uchar green
property uchar blue
property uchar alpha
element face 4
property list uchar uint vertex_indices
end_header
0.000000 -0.205810 -1.000000 -0.771092 0.636724 0.000000 0.500000 0.000000 185 47 169 255
-0.054734 -0.272095 -1.000000 -0.771092 0.636724 0.000000 0.000000 0.000000 185 47 169 255
-0.054734 -0.272095 1.000000 -0.771092 0.636724 0.000000 0.000000 1.000000 185 47 169 255
0.000000 -0.205810 1.000000 -0.771092 0.636724 0.000000 0.500000 1.000000 185 47 169 255
0.054734 -0.272095 -1.000000 0.771092 0.636724 0.000000 1.000000 0.000000 185 47 169 255
0.000000 -0.205810 -1.000000 0.771092 0.636724 0.000000 0.500000 0.000000 185 47 169 255
0.000000 -0.205810 1.000000 0.771092 0.636724 0.000000 0.500000 1.000000 185 47 169 255
0.054734 -0.272095 1.000000 0.771092 0.636724 0.000000 1.000000 1.000000 185 47 169 255
-1.000000 -0.205810 0.000000 0.000000 0.636724 0.771092 0.500000 0.000000 185 47 169 255
-1.000000 -0.272095 0.054734 0.000000 0.636724 0.771092 0.000000 0.000000 185 47 169 255
1.000000 -0.272095 0.054734 0.000000 0.636724 0.771092 0.000000 1.000000 185 47 169 255
1.000000 -0.205810 0.000000 0.000000 0.636724 0.771092 0.500000 1.000000 185 47 169 255
-1.000000 -0.272095 -0.054734 -0.000000 0.636724 -0.771092 1.000000 0.000000 185 47 169 255
-1.000000 -0.205810 0.000000 -0.000000 0.636724 -0.771092 0.500000 0.000000 185 47 169 255
1.000000 -0.205810 0.000000 -0.000000 0.636724 -0.771092 0.500000 1.000000 185 47 169 255
1.000000 -0.272095 -0.054734 -0.000000 0.636724 -0.771092 1.000000 1.000000 185 47 169 255
4 0 1 2 3
4 4 5 6 7
4 8 9 10 11
4 12 13 14 15
