ply
format ascii 1.0
comment Created by Blender 2.83.5 - www.blender.org, source file: ''
element vertex 30
property float x
property float y
property float z
property float nx
property float ny
property float nz
property float s
property float t
property uchar red
property uchar green
property uchar blue
property uchar alpha
element face 9
property list uchar uint vertex_indices
end_header
-1.000000 0.000000 1.000000 0.000000 1.000000 -0.000000 1.000000 1.000000 128 71 140 255
0.000000 0.000000 1.000000 0.000000 1.000000 -0.000000 0.500000 1.000000 128 71 140 255
0.000000 0.000000 0.300000 0.000000 1.000000 -0.000000 0.500000 0.650000 128 71 140 255
-0.400000 0.000000 -0.000000 0.000000 1.000000 -0.000000 0.700000 0.500000 128 71 140 255
-0.400000 0.000000 -0.000000 0.600000 0.000000 -0.800000 0.300000 0.750000 185 47 169 255
0.000000 0.000000 0.300000 0.600000 0.000000 -0.800000 0.500000 0.750000 185 47 169 255
0.000000 -1.000000 0.300000 0.600000 0.000000 -0.800000 0.500000 0.250000 185 47 169 255
-0.400000 -1.000000 -0.000000 0.600000 0.000000 -0.800000 0.300000 0.250000 185 47 169 255
-1.000000 0.000000 -1.000000 0.000000 1.000000 0.000000 1.000000 0.000000 128 71 140 255
-0.400000 0.000000 -1.000000 0.000000 1.000000 0.000000 0.700000 0.000000 128 71 140 255
1.000000 0.000000 1.000000 -0.000000 1.000000 0.000000 0.000000 1.000000 128 71 140 255
1.000000 0.000000 -1.000000 -0.000000 1.000000 0.000000 0.000000 0.000000 128 71 140 255
0.400000 0.000000 -1.000000 -0.000000 1.000000 0.000000 0.300000 0.000000 128 71 140 255
0.400000 0.000000 -0.000000 -0.000000 1.000000 0.000000 0.300000 0.500000 128 71 140 255
0.400000 0.000000 -1.000000 0.000000 -0.000000 1.000000 0.700000 0.750000 185 47 169 255
-0.400000 0.000000 -1.000000 0.000000 -0.000000 1.000000 0.300000 0.750000 185 47 169 255
-0.400000 -1.000000 -1.000000 0.000000 -0.000000 1.000000 0.300000 0.250000 185 47 169 255
0.400000 -1.000000 -1.000000 0.000000 -0.000000 1.000000 0.700000 0.250000 185 47 169 255
0.000000 0.000000 0.300000 -0.600000 0.000000 -0.800000 0.500000 0.750000 185 47 169 255
0.400000 0.000000 -0.000000 -0.600000 0.000000 -0.800000 0.700000 0.750000 185 47 169 255
0.400000 -1.000000 -0.000000 -0.600000 0.000000 -0.800000 0.700000 0.250000 185 47 169 255
0.000000 -1.000000 0.300000 -0.600000 0.000000 -0.800000 0.500000 0.250000 185 47 169 255
-0.400000 0.000000 -1.000000 1.000000 -0.000000 0.000000 0.750000 0.170000 185 47 169 255
-0.400000 0.000000 -0.000000 1.000000 -0.000000 0.000000 0.750000 0.670000 185 47 169 255
-0.400000 -1.000000 -0.000000 1.000000 -0.000000 0.000000 0.250000 0.670000 185 47 169 255
-0.400000 -1.000000 -1.000000 1.000000 -0.000000 0.000000 0.250000 0.170000 185 47 169 255
0.400000 0.000000 -0.000000 -1.000000 0.000000 0.000000 0.750000 0.670000 185 47 169 255
0.400000 0.000000 -1.000000 -1.000000 0.000000 0.000000 0.750000 0.170000 185 47 169 255
0.400000 -1.000000 -1.000000 -1.000000 0.000000 0.000000 0.250000 0.170000 185 47 169 255
0.400000 -1.000000 -0.000000 -1.000000 0.000000 0.000000 0.250000 0.670000 185 47 169 255
4 0 1 2 3
4 4 5 6 7
4 8 0 3 9
4 10 11 12 13
4 1 10 13 2
4 14 15 16 17
4 18 19 20 21
4 22 23 24 25
4 26 27 28 29
