ply
format ascii 1.0
comment Created by Blender 2.83.5 - www.blender.org, source file: ''
element vertex 4
property float x
property float y
property float z
property float nx
property float ny
property float nz
property float s
property float t
property uchar red
property uchar green
property uchar blue
property uchar alpha
element face 1
property list uchar uint vertex_indices
end_header
-1.000000 0.000000 -1.000000 0.000000 0.000000 1.000000 0.000000 0.000000 128 71 140 255
1.000000 0.000000 -1.000000 0.000000 0.000000 1.000000 1.000000 0.000000 128 71 140 255
1.000000 0.000000 1.000000 0.000000 0.000000 1.000000 1.000000 1.000000 128 71 140 255
-1.000000 0.000000 1.000000 0.000000 0.000000 1.000000 0.000000 1.000000 128 71 140 255
4 0 1 2 3
