MFile 0 1 960
MTrk
0 Par ch=2 c=0 v=121
0 Par ch=2 c=32 v=0
0 PrCh ch=2 p=3
0 On ch=10 n=35 v=104
0 On ch=10 n=38 v=114
0 On ch=10 n=42 v=119
0 On ch=2 n=43 v=89
21 Par ch=1 c=0 v=121
21 Par ch=1 c=32 v=0
21 PrCh ch=1 p=18
21 On ch=1 n=67 v=96
55 On ch=1 n=79 v=86
59 Off ch=10 n=42 v=0
130 Off ch=10 n=35 v=0
177 On ch=1 n=69 v=83
180 Off ch=1 n=67 v=0
214 Off ch=1 n=79 v=0
248 On ch=1 n=81 v=76
276 On ch=2 n=44 v=88
300 On ch=1 n=70 v=87
303 Off ch=1 n=69 v=0
313 Off ch=2 n=43 v=0
364 Off ch=1 n=70 v=0
365 On ch=1 n=82 v=74
374 Off ch=1 n=81 v=0
395 Off ch=2 n=44 v=0
429 Off ch=1 n=82 v=0
476 On ch=2 n=40 v=100
480 On ch=10 n=35 v=98
480 On ch=10 n=44 v=125
480 On ch=1 n=71 v=116
482 Par ch=3 c=0 v=121
482 Par ch=3 c=32 v=0
482 PrCh ch=3 p=37
482 On ch=3 n=52 v=98
556 On ch=1 n=83 v=86
566 Off ch=10 n=44 v=0
594 Off ch=2 n=40 v=0
705 Off ch=3 n=52 v=0
724 Off ch=10 n=38 v=0
759 Off ch=1 n=71 v=0
766 On ch=2 n=40 v=81
790 On ch=10 n=44 v=101
835 Off ch=1 n=83 v=0
849 Off ch=10 n=44 v=0
957 Off ch=2 n=40 v=0
960 On ch=10 n=38 v=114
960 On ch=10 n=42 v=122
961 On ch=2 n=43 v=81
968 On ch=3 n=50 v=94
974 On ch=1 n=71 v=119
1018 On ch=1 n=83 v=89
1039 Off ch=10 n=42 v=0
1164 Off ch=10 n=35 v=0
1182 Off ch=1 n=71 v=0
1198 Off ch=3 n=50 v=0
1226 Off ch=1 n=83 v=0
1242 On ch=2 n=44 v=86
1257 Off ch=2 n=43 v=0
1270 On ch=10 n=35 v=106
1270 On ch=10 n=44 v=119
1282 On ch=3 n=52 v=109
1336 Off ch=10 n=44 v=0
1347 Off ch=2 n=44 v=0
1440 On ch=10 n=44 v=114
1443 On ch=2 n=40 v=76
1447 On ch=1 n=71 v=114
1472 Off ch=3 n=52 v=0
1512 On ch=1 n=83 v=95
1520 Off ch=10 n=38 v=0
1532 Off ch=10 n=44 v=0
1568 Off ch=2 n=40 v=0
1731 On ch=2 n=38 v=69
1750 On ch=10 n=44 v=122
1809 Off ch=10 n=44 v=0
1848 Off ch=1 n=71 v=0
1913 Off ch=1 n=83 v=0
1920 On ch=10 n=38 v=114
1920 On ch=10 n=42 v=119
1920 On ch=2 n=45 v=91
1921 On ch=1 n=69 v=119
1922 Off ch=2 n=38 v=0
1978 On ch=1 n=81 v=115
1999 Off ch=10 n=42 v=0
2106 Off ch=10 n=35 v=0
2140 Off ch=1 n=69 v=0
2186 On ch=1 n=67 v=49
2197 Off ch=1 n=81 v=0
2201 On ch=2 n=43 v=69
2230 On ch=10 n=35 v=94
2230 On ch=10 n=44 v=114
2232 On ch=3 n=47 v=71
2263 Off ch=2 n=45 v=0
2269 Off ch=1 n=67 v=0
2302 Off ch=10 n=44 v=0
2306 On ch=1 n=79 v=30
2309 Off ch=10 n=35 v=0
2337 On ch=1 n=69 v=123
2385 Off ch=2 n=43 v=0
2389 Off ch=1 n=79 v=0
2392 On ch=1 n=81 v=98
2400 On ch=10 n=35 v=98
2400 On ch=10 n=44 v=92
2410 On ch=2 n=40 v=87
2411 On ch=3 n=52 v=121
2419 Off ch=3 n=47 v=0
2498 Off ch=10 n=44 v=0
2542 Off ch=2 n=40 v=0
2667 Off ch=1 n=69 v=0
2677 Off ch=10 n=38 v=0
2683 On ch=1 n=67 v=114
2697 On ch=2 n=40 v=80
2710 On ch=10 n=44 v=114
2714 Off ch=3 n=52 v=0
2721 On ch=1 n=79 v=93
2722 Off ch=1 n=81 v=0
2762 Off ch=10 n=44 v=0
2847 Off ch=1 n=67 v=0
2872 On ch=3 n=50 v=78
2880 On ch=10 n=38 v=111
2880 On ch=10 n=42 v=116
2880 On ch=1 n=66 v=92
2885 Off ch=1 n=79 v=0
2891 On ch=2 n=45 v=83
2901 Off ch=2 n=40 v=0
2932 On ch=1 n=78 v=97
2959 Off ch=10 n=42 v=0
3038 Off ch=10 n=35 v=0
3044 Off ch=1 n=66 v=0
3096 Off ch=1 n=78 v=0
3143 On ch=1 n=64 v=111
3146 Off ch=3 n=50 v=0
3162 On ch=1 n=76 v=79
3169 On ch=2 n=43 v=106
3183 On ch=3 n=52 v=96
3190 On ch=10 n=35 v=102
3190 On ch=10 n=44 v=114
3193 Off ch=2 n=45 v=0
3256 Off ch=10 n=44 v=0
3301 Off ch=2 n=43 v=0
3349 On ch=2 n=40 v=96
3360 On ch=10 n=44 v=106
3384 Off ch=3 n=52 v=0
3427 Off ch=1 n=64 v=0
3446 Off ch=10 n=44 v=0
3446 Off ch=1 n=76 v=0
3461 Off ch=2 n=40 v=0
3597 Off ch=10 n=38 v=0
3641 On ch=2 n=40 v=78
3670 On ch=10 n=44 v=114
3723 Off ch=10 n=44 v=0
3830 On ch=1 n=67 v=104
3832 Off ch=2 n=40 v=0
3835 On ch=2 n=45 v=85
3840 On ch=10 n=38 v=114
3840 On ch=10 n=42 v=107
3866 On ch=1 n=79 v=74
3913 Off ch=10 n=42 v=0
3984 Off ch=1 n=67 v=0
3990 On ch=1 n=69 v=83
3992 On ch=1 n=81 v=62
4019 Off ch=2 n=45 v=0
4020 Off ch=1 n=79 v=0
4116 On ch=1 n=70 v=95
4117 On ch=2 n=43 v=85
4125 On ch=1 n=82 v=86
4144 Off ch=1 n=69 v=0
4146 Off ch=1 n=81 v=0
4150 On ch=10 n=44 v=109
4169 On ch=3 n=47 v=73
4203 Off ch=10 n=44 v=0
4220 Off ch=1 n=70 v=0
4224 Off ch=10 n=35 v=0
4229 Off ch=1 n=82 v=0
4262 Off ch=2 n=43 v=0
4295 On ch=1 n=71 v=98
4309 On ch=2 n=38 v=96
4320 On ch=10 n=35 v=91
4320 On ch=10 n=44 v=109
4327 On ch=3 n=52 v=111
4353 Off ch=3 n=47 v=0
4397 On ch=1 n=83 v=79
4418 Off ch=10 n=44 v=0
4441 Off ch=2 n=38 v=0
4504 Off ch=10 n=38 v=0
4568 Off ch=3 n=52 v=0
4597 On ch=2 n=38 v=76
4614 Off ch=1 n=71 v=0
4630 On ch=10 n=44 v=111
4689 Off ch=10 n=44 v=0
4716 Off ch=1 n=83 v=0
4797 On ch=2 n=45 v=104
4798 On ch=3 n=50 v=89
4800 On ch=10 n=38 v=114
4800 On ch=10 n=42 v=116
4802 On ch=1 n=71 v=109
4860 Off ch=10 n=42 v=0
4867 Off ch=2 n=38 v=0
4901 On ch=1 n=83 v=90
4959 Off ch=10 n=35 v=0
4961 Off ch=2 n=45 v=0
5047 Off ch=3 n=50 v=0
5076 Off ch=1 n=71 v=0
5087 On ch=2 n=43 v=73
5094 On ch=3 n=52 v=96
5110 On ch=10 n=35 v=106
5110 On ch=10 n=44 v=114
5169 Off ch=10 n=44 v=0
5175 Off ch=1 n=83 v=0
5212 Off ch=2 n=43 v=0
5274 Off ch=10 n=38 v=0
5280 On ch=10 n=44 v=107
5281 On ch=2 n=37 v=114
5289 On ch=1 n=71 v=116
5330 On ch=1 n=83 v=95
5339 Off ch=3 n=52 v=0
5378 Off ch=10 n=44 v=0
5412 Off ch=2 n=37 v=0
5551 On ch=3 n=47 v=89
5571 On ch=2 n=37 v=44
5590 On ch=10 n=44 v=119
5649 Off ch=10 n=44 v=0
5735 Off ch=1 n=71 v=0
5760 On ch=10 n=38 v=119
5760 On ch=10 n=42 v=122
5767 On ch=2 n=40 v=83
5776 Off ch=1 n=83 v=0
5777 On ch=1 n=69 v=80
5788 Off ch=2 n=37 v=0
5791 On ch=1 n=81 v=53
5833 Off ch=10 n=42 v=0
5946 Off ch=10 n=35 v=0
5965 Off ch=3 n=47 v=0
6024 Off ch=2 n=40 v=0
6038 Off ch=1 n=69 v=0
6051 On ch=2 n=43 v=96
6052 Off ch=1 n=81 v=0
6055 On ch=3 n=47 v=91
6057 On ch=1 n=67 v=45
6070 On ch=10 n=35 v=68
6070 On ch=10 n=44 v=122
6096 On ch=1 n=79 v=24
6116 Off ch=10 n=35 v=0
6123 Off ch=10 n=44 v=0
6183 Off ch=2 n=43 v=0
6191 Off ch=1 n=67 v=0
6230 Off ch=1 n=79 v=0
6235 On ch=3 n=50 v=102
6239 On ch=2 n=37 v=116
6240 On ch=10 n=35 v=104
6240 On ch=10 n=44 v=107
6242 Off ch=3 n=47 v=0
6325 Off ch=10 n=44 v=0
6351 Off ch=2 n=37 v=0
6477 Off ch=10 n=38 v=0
6487 Off ch=3 n=50 v=0
6521 On ch=1 n=71 v=73
6524 On ch=2 n=37 v=93
6534 On ch=3 n=49 v=48
6550 On ch=10 n=44 v=116
6567 On ch=1 n=83 v=63
6609 Off ch=10 n=44 v=0
6706 On ch=3 n=47 v=85
6717 Off ch=3 n=49 v=0
6720 On ch=10 n=38 v=111
6720 On ch=10 n=42 v=111
6720 On ch=2 n=40 v=83
6725 Off ch=1 n=71 v=0
6729 Off ch=2 n=37 v=0
6771 Off ch=1 n=83 v=0
6786 Off ch=10 n=35 v=0
6792 Off ch=10 n=42 v=0
6947 Off ch=3 n=47 v=0
6985 On ch=1 n=71 v=109
7003 Off ch=2 n=40 v=0
7004 On ch=2 n=43 v=89
7013 On ch=3 n=45 v=83
7030 On ch=10 n=35 v=96
7030 On ch=10 n=44 v=114
7062 On ch=1 n=83 v=98
7096 Off ch=10 n=44 v=0
7171 Off ch=3 n=45 v=0
7182 Off ch=2 n=43 v=0
7192 On ch=3 n=43 v=111
7200 On ch=10 n=44 v=106
7208 On ch=2 n=40 v=89
7292 Off ch=10 n=44 v=0
7320 Off ch=2 n=40 v=0
7397 Off ch=3 n=43 v=0
7398 Off ch=10 n=38 v=0
7495 On ch=3 n=38 v=102
7499 On ch=2 n=40 v=73
7510 On ch=10 n=44 v=116
7569 Off ch=10 n=44 v=0
7624 Off ch=2 n=40 v=0
7680 On ch=10 n=38 v=114
7680 On ch=10 n=42 v=114
7680 On ch=1 n=67 v=106
7680 On ch=2 n=43 v=89
7719 Off ch=1 n=71 v=0
7759 Off ch=10 n=42 v=0
7779 On ch=1 n=79 v=79
7796 Off ch=1 n=83 v=0
7820 Off ch=1 n=67 v=0
7841 On ch=1 n=69 v=78
7858 On ch=1 n=81 v=55
7919 Off ch=1 n=79 v=0
7924 Off ch=3 n=38 v=0
7956 On ch=2 n=44 v=88
7990 On ch=10 n=44 v=92
7993 Off ch=2 n=43 v=0
8002 On ch=1 n=70 v=74
8003 Off ch=1 n=69 v=0
8020 Off ch=1 n=81 v=0
8030 Off ch=10 n=44 v=0
8031 Off ch=10 n=35 v=0
8037 On ch=1 n=82 v=59
8075 Off ch=2 n=44 v=0
8106 Off ch=1 n=70 v=0
8141 Off ch=1 n=82 v=0
8156 On ch=2 n=40 v=100
8157 On ch=3 n=52 v=111
8160 On ch=10 n=35 v=91
8160 On ch=10 n=44 v=111
8162 On ch=1 n=71 v=96
8200 On ch=1 n=83 v=56
8246 Off ch=10 n=44 v=0
8274 Off ch=2 n=40 v=0
8406 Off ch=3 n=52 v=0
8411 Off ch=10 n=38 v=0
8427 Off ch=1 n=71 v=0
8446 On ch=2 n=40 v=81
8465 Off ch=1 n=83 v=0
8470 On ch=10 n=44 v=114
8529 Off ch=10 n=44 v=0
8637 Off ch=2 n=40 v=0
8640 On ch=10 n=38 v=119
8640 On ch=10 n=42 v=107
8641 On ch=2 n=43 v=81
8651 On ch=3 n=50 v=102
8657 On ch=1 n=71 v=111
8706 Off ch=10 n=42 v=0
8739 On ch=1 n=83 v=92
8913 Off ch=1 n=71 v=0
8917 Off ch=3 n=50 v=0
8922 On ch=2 n=44 v=86
8937 Off ch=2 n=43 v=0
8950 On ch=10 n=44 v=111
8954 On ch=3 n=52 v=98
8990 Off ch=10 n=35 v=0
8995 Off ch=1 n=83 v=0
9016 Off ch=10 n=44 v=0
9027 Off ch=2 n=44 v=0
9120 On ch=10 n=35 v=74
9120 On ch=10 n=44 v=101
9123 On ch=2 n=40 v=76
9141 Off ch=3 n=52 v=0
9145 On ch=1 n=71 v=121
9186 On ch=1 n=83 v=96
9206 Off ch=10 n=44 v=0
9248 Off ch=2 n=40 v=0
9312 Off ch=10 n=38 v=0
9411 On ch=2 n=38 v=69
9430 On ch=10 n=44 v=114
9489 Off ch=10 n=44 v=0
9600 On ch=10 n=38 v=119
9600 On ch=10 n=42 v=116
9600 On ch=2 n=45 v=91
9602 Off ch=2 n=38 v=0
9605 On ch=1 n=69 v=98
9624 Off ch=1 n=71 v=0
9665 Off ch=1 n=83 v=0
9672 Off ch=10 n=42 v=0
9715 On ch=1 n=81 v=70
9765 Off ch=10 n=35 v=0
9837 Off ch=1 n=69 v=0
9881 On ch=2 n=43 v=69
9884 On ch=1 n=67 v=96
9904 On ch=3 n=47 v=78
9910 On ch=10 n=35 v=81
9910 On ch=10 n=44 v=116
9929 On ch=1 n=79 v=88
9943 Off ch=2 n=45 v=0
9947 Off ch=1 n=81 v=0
9969 Off ch=10 n=44 v=0
9983 Off ch=10 n=35 v=0
10000 Off ch=1 n=67 v=0
10045 Off ch=1 n=79 v=0
10050 On ch=1 n=69 v=119
10065 Off ch=2 n=43 v=0
10072 On ch=3 n=52 v=80
10073 Off ch=3 n=47 v=0
10080 On ch=10 n=35 v=94
10080 On ch=10 n=44 v=109
10090 On ch=2 n=40 v=87
10119 On ch=1 n=81 v=110
10179 Off ch=10 n=44 v=0
10222 Off ch=2 n=40 v=0
10296 Off ch=1 n=69 v=0
10321 Off ch=3 n=52 v=0
10334 On ch=1 n=67 v=87
10338 Off ch=10 n=38 v=0
10365 Off ch=1 n=81 v=0
10377 On ch=2 n=40 v=80
10390 On ch=10 n=44 v=116
10428 On ch=1 n=79 v=70
10449 Off ch=10 n=44 v=0
10555 On ch=3 n=50 v=91
10560 On ch=10 n=38 v=121
10560 On ch=10 n=42 v=119
10560 On ch=1 n=66 v=87
10567 Off ch=1 n=67 v=0
10571 On ch=2 n=45 v=83
10581 Off ch=2 n=40 v=0
10626 Off ch=10 n=42 v=0
10661 Off ch=1 n=79 v=0
10673 On ch=1 n=78 v=60
10725 Off ch=10 n=35 v=0
10789 On ch=1 n=64 v=98
10793 Off ch=1 n=66 v=0
10840 Off ch=3 n=50 v=0
10849 On ch=2 n=43 v=106
10858 On ch=3 n=52 v=78
10864 On ch=1 n=76 v=83
10870 On ch=10 n=35 v=89
10870 On ch=10 n=44 v=114
10873 Off ch=2 n=45 v=0
10906 Off ch=1 n=78 v=0
10943 Off ch=10 n=44 v=0
10981 Off ch=2 n=43 v=0
11029 On ch=2 n=40 v=96
11040 On ch=10 n=44 v=103
11078 Off ch=3 n=52 v=0
11132 Off ch=10 n=44 v=0
11141 Off ch=2 n=40 v=0
11205 Off ch=10 n=38 v=0
11282 Off ch=1 n=64 v=0
11321 On ch=2 n=40 v=78
11330 On ch=3 n=47 v=94
11350 On ch=10 n=44 v=119
11357 Off ch=1 n=76 v=0
11415 Off ch=10 n=44 v=0
11512 Off ch=2 n=40 v=0
11513 On ch=1 n=79 v=64
11515 On ch=2 n=45 v=85
11518 On ch=1 n=67 v=106
11520 On ch=10 n=38 v=121
11520 On ch=10 n=42 v=119
11592 Off ch=10 n=42 v=0
11653 Off ch=1 n=79 v=0
11658 Off ch=1 n=67 v=0
11679 On ch=1 n=69 v=78
11699 Off ch=2 n=45 v=0
11747 Off ch=3 n=47 v=0
11768 On ch=1 n=81 v=61
11785 Off ch=10 n=35 v=0
11797 On ch=2 n=43 v=85
11808 On ch=3 n=47 v=80
11830 On ch=10 n=44 v=114
11840 On ch=1 n=70 v=74
11842 Off ch=1 n=69 v=0
11884 On ch=1 n=82 v=55
11902 Off ch=10 n=44 v=0
11931 Off ch=1 n=81 v=0
11942 Off ch=2 n=43 v=0
11944 Off ch=1 n=70 v=0
11949 On ch=1 n=71 v=96
11973 On ch=3 n=52 v=96
11988 Off ch=1 n=82 v=0
11989 On ch=2 n=38 v=96
12000 On ch=10 n=35 v=89
12000 On ch=10 n=44 v=107
12010 Off ch=3 n=47 v=0
12067 On ch=1 n=83 v=67
12099 Off ch=10 n=44 v=0
12106 Off ch=10 n=38 v=0
12121 Off ch=2 n=38 v=0
12197 Off ch=3 n=52 v=0
12214 Off ch=1 n=71 v=0
12277 On ch=2 n=38 v=76
12310 On ch=10 n=44 v=114
12332 Off ch=1 n=83 v=0
12369 Off ch=10 n=44 v=0
12422 On ch=1 n=71 v=119
12467 On ch=3 n=50 v=91
12477 On ch=2 n=45 v=104
12480 On ch=10 n=38 v=123
12480 On ch=10 n=42 v=111
12498 On ch=1 n=83 v=90
12547 Off ch=2 n=38 v=0
12559 Off ch=10 n=42 v=0
12641 Off ch=2 n=45 v=0
12669 Off ch=1 n=71 v=0
12733 Off ch=3 n=50 v=0
12745 Off ch=1 n=83 v=0
12766 On ch=3 n=52 v=69
12767 On ch=2 n=43 v=73
12790 On ch=10 n=44 v=116
12829 Off ch=10 n=35 v=0
12856 Off ch=10 n=44 v=0
12892 Off ch=2 n=43 v=0
12930 On ch=1 n=71 v=109
12960 On ch=10 n=35 v=87
12960 On ch=10 n=44 v=106
12961 On ch=2 n=37 v=114
12998 On ch=1 n=83 v=98
13015 Off ch=3 n=52 v=0
13045 Off ch=10 n=44 v=0
13092 Off ch=2 n=37 v=0
13178 Off ch=10 n=38 v=0
13238 On ch=3 n=47 v=94
13251 On ch=2 n=37 v=44
13270 On ch=10 n=44 v=107
13342 Off ch=10 n=44 v=0
13361 Off ch=1 n=71 v=0
13429 Off ch=1 n=83 v=0
13438 On ch=1 n=69 v=87
13440 On ch=10 n=38 v=119
13440 On ch=10 n=42 v=90
13447 On ch=2 n=40 v=83
13468 Off ch=2 n=37 v=0
13519 Off ch=10 n=42 v=0
13534 On ch=1 n=81 v=58
13605 Off ch=10 n=35 v=0
13648 Off ch=3 n=47 v=0
13664 Off ch=1 n=69 v=0
13704 Off ch=2 n=40 v=0
13707 On ch=1 n=67 v=39
13731 On ch=2 n=43 v=96
13739 On ch=3 n=47 v=94
13750 On ch=10 n=35 v=96
13750 On ch=10 n=44 v=116
13760 Off ch=1 n=81 v=0
13804 On ch=1 n=79 v=16
13816 Off ch=10 n=44 v=0
13836 Off ch=10 n=35 v=0
13857 Off ch=1 n=67 v=0
13858 On ch=1 n=74 v=104
13863 Off ch=2 n=43 v=0
13906 On ch=1 n=86 v=85
13919 On ch=2 n=37 v=116
13920 On ch=10 n=35 v=96
13920 On ch=10 n=44 v=101
13921 On ch=3 n=50 v=98
13947 Off ch=3 n=47 v=0
13954 Off ch=1 n=79 v=0
14026 Off ch=10 n=44 v=0
14031 Off ch=2 n=37 v=0
14085 Off ch=1 n=74 v=0
14133 Off ch=1 n=86 v=0
14158 Off ch=10 n=38 v=0
14166 Off ch=3 n=50 v=0
14190 On ch=1 n=76 v=94
14204 On ch=2 n=37 v=93
14210 On ch=3 n=49 v=98
14230 On ch=10 n=44 v=114
14296 Off ch=10 n=44 v=0
14312 On ch=1 n=88 v=73
14354 Off ch=1 n=76 v=0
14382 On ch=3 n=47 v=94
14397 Off ch=3 n=49 v=0
14400 On ch=10 n=38 v=116
14400 On ch=10 n=42 v=109
14400 On ch=2 n=40 v=83
14409 Off ch=2 n=37 v=0
14476 Off ch=1 n=88 v=0
14479 Off ch=10 n=42 v=0
14525 Off ch=10 n=35 v=0
14660 Off ch=3 n=47 v=0
14663 On ch=1 n=88 v=83
14674 On ch=1 n=76 v=104
14683 Off ch=10 n=38 v=0
14683 Off ch=2 n=40 v=0
14684 On ch=2 n=43 v=89
14692 On ch=3 n=45 v=98
14710 On ch=10 n=35 v=102
14710 On ch=10 n=44 v=114
14775 Off ch=10 n=44 v=0
14847 Off ch=3 n=45 v=0
14862 Off ch=2 n=43 v=0
14863 Off ch=1 n=88 v=0
14874 Off ch=1 n=76 v=0
14877 Off ch=10 n=35 v=0
14877 On ch=10 n=35 v=104
14877 On ch=10 n=38 v=114
14879 On ch=3 n=43 v=109
14888 On ch=2 n=40 v=89
15000 Off ch=2 n=40 v=0
15072 Off ch=10 n=38 v=0
15080 Off ch=3 n=43 v=0
15179 On ch=2 n=40 v=73
15185 On ch=3 n=38 v=109
15187 On ch=10 n=44 v=119
15259 Off ch=10 n=44 v=0
15304 Off ch=2 n=40 v=0
15357 On ch=10 n=38 v=114
15357 On ch=10 n=42 v=119
15358 Off ch=3 n=38 v=0
15360 Off ch=10 n=35 v=0
15360 Off ch=10 n=38 v=0
15360 Off ch=10 n=42 v=0
15360 On ch=10 n=35 v=104
15360 On ch=10 n=38 v=114
15360 On ch=10 n=42 v=119
15360 On ch=2 n=43 v=89
15381 On ch=1 n=67 v=96
15415 On ch=1 n=79 v=86
15419 Off ch=10 n=42 v=0
15490 Off ch=10 n=35 v=0
15537 On ch=1 n=69 v=83
15540 Off ch=1 n=67 v=0
15574 Off ch=1 n=79 v=0
15608 On ch=1 n=81 v=76
15636 On ch=2 n=44 v=88
15660 On ch=1 n=70 v=87
15663 Off ch=1 n=69 v=0
15673 Off ch=2 n=43 v=0
15724 Off ch=1 n=70 v=0
15725 On ch=1 n=82 v=74
15734 Off ch=1 n=81 v=0
15755 Off ch=2 n=44 v=0
15789 Off ch=1 n=82 v=0
15836 On ch=2 n=40 v=100
15840 On ch=10 n=35 v=98
15840 On ch=10 n=44 v=125
15840 On ch=1 n=71 v=116
15842 On ch=3 n=52 v=98
15916 On ch=1 n=83 v=86
15926 Off ch=10 n=44 v=0
15954 Off ch=2 n=40 v=0
16065 Off ch=3 n=52 v=0
16084 Off ch=10 n=38 v=0
16119 Off ch=1 n=71 v=0
16126 On ch=2 n=40 v=81
16150 On ch=10 n=44 v=101
16195 Off ch=1 n=83 v=0
16209 Off ch=10 n=44 v=0
16317 Off ch=2 n=40 v=0
16320 On ch=10 n=38 v=114
16320 On ch=10 n=42 v=122
16321 On ch=2 n=43 v=81
16328 On ch=3 n=50 v=94
16334 On ch=1 n=71 v=119
16378 On ch=1 n=83 v=89
16399 Off ch=10 n=42 v=0
16524 Off ch=10 n=35 v=0
16542 Off ch=1 n=71 v=0
16558 Off ch=3 n=50 v=0
16586 Off ch=1 n=83 v=0
16602 On ch=2 n=44 v=86
16617 Off ch=2 n=43 v=0
16630 On ch=10 n=35 v=106
16630 On ch=10 n=44 v=119
16642 On ch=3 n=52 v=109
16696 Off ch=10 n=44 v=0
16707 Off ch=2 n=44 v=0
16800 On ch=10 n=44 v=114
16803 On ch=2 n=40 v=76
16807 On ch=1 n=71 v=114
16832 Off ch=3 n=52 v=0
16872 On ch=1 n=83 v=95
16880 Off ch=10 n=38 v=0
16892 Off ch=10 n=44 v=0
16928 Off ch=2 n=40 v=0
17091 On ch=2 n=38 v=69
17110 On ch=10 n=44 v=122
17169 Off ch=10 n=44 v=0
17208 Off ch=1 n=71 v=0
17273 Off ch=1 n=83 v=0
17280 On ch=10 n=38 v=114
17280 On ch=10 n=42 v=119
17280 On ch=2 n=45 v=91
17281 On ch=1 n=69 v=119
17282 Off ch=2 n=38 v=0
17338 On ch=1 n=81 v=115
17359 Off ch=10 n=42 v=0
17466 Off ch=10 n=35 v=0
17500 Off ch=1 n=69 v=0
17546 On ch=1 n=67 v=49
17557 Off ch=1 n=81 v=0
17561 On ch=2 n=43 v=69
17590 On ch=10 n=35 v=94
17590 On ch=10 n=44 v=114
17592 On ch=3 n=47 v=71
17623 Off ch=2 n=45 v=0
17629 Off ch=1 n=67 v=0
17662 Off ch=10 n=44 v=0
17666 On ch=1 n=79 v=30
17669 Off ch=10 n=35 v=0
17697 On ch=1 n=69 v=123
17745 Off ch=2 n=43 v=0
17749 Off ch=1 n=79 v=0
17752 On ch=1 n=81 v=98
17760 On ch=10 n=35 v=98
17760 On ch=10 n=44 v=92
17770 On ch=2 n=40 v=87
17771 On ch=3 n=52 v=121
17779 Off ch=3 n=47 v=0
17858 Off ch=10 n=44 v=0
17902 Off ch=2 n=40 v=0
18027 Off ch=1 n=69 v=0
18037 Off ch=10 n=38 v=0
18043 On ch=1 n=67 v=114
18057 On ch=2 n=40 v=80
18070 On ch=10 n=44 v=114
18074 Off ch=3 n=52 v=0
18081 On ch=1 n=79 v=93
18082 Off ch=1 n=81 v=0
18122 Off ch=10 n=44 v=0
18207 Off ch=1 n=67 v=0
18232 On ch=3 n=50 v=78
18240 On ch=10 n=38 v=111
18240 On ch=10 n=42 v=116
18240 On ch=1 n=66 v=92
18245 Off ch=1 n=79 v=0
18251 On ch=2 n=45 v=83
18261 Off ch=2 n=40 v=0
18292 On ch=1 n=78 v=97
18319 Off ch=10 n=42 v=0
18398 Off ch=10 n=35 v=0
18404 Off ch=1 n=66 v=0
18456 Off ch=1 n=78 v=0
18503 On ch=1 n=64 v=111
18506 Off ch=3 n=50 v=0
18522 On ch=1 n=76 v=79
18529 On ch=2 n=43 v=106
18543 On ch=3 n=52 v=96
18550 On ch=10 n=35 v=102
18550 On ch=10 n=44 v=114
18553 Off ch=2 n=45 v=0
18616 Off ch=10 n=44 v=0
18661 Off ch=2 n=43 v=0
18709 On ch=2 n=40 v=96
18720 On ch=10 n=44 v=106
18744 Off ch=3 n=52 v=0
18787 Off ch=1 n=64 v=0
18806 Off ch=10 n=44 v=0
18806 Off ch=1 n=76 v=0
18821 Off ch=2 n=40 v=0
18957 Off ch=10 n=38 v=0
19001 On ch=2 n=40 v=78
19030 On ch=10 n=44 v=114
19083 Off ch=10 n=44 v=0
19190 On ch=1 n=67 v=104
19192 Off ch=2 n=40 v=0
19195 On ch=2 n=45 v=85
19200 On ch=10 n=38 v=114
19200 On ch=10 n=42 v=107
19226 On ch=1 n=79 v=74
19273 Off ch=10 n=42 v=0
19344 Off ch=1 n=67 v=0
19350 On ch=1 n=69 v=83
19352 On ch=1 n=81 v=62
19379 Off ch=2 n=45 v=0
19380 Off ch=1 n=79 v=0
19476 On ch=1 n=70 v=95
19477 On ch=2 n=43 v=85
19485 On ch=1 n=82 v=86
19504 Off ch=1 n=69 v=0
19506 Off ch=1 n=81 v=0
19510 On ch=10 n=44 v=109
19529 On ch=3 n=47 v=73
19563 Off ch=10 n=44 v=0
19580 Off ch=1 n=70 v=0
19584 Off ch=10 n=35 v=0
19589 Off ch=1 n=82 v=0
19622 Off ch=2 n=43 v=0
19655 On ch=1 n=71 v=98
19669 On ch=2 n=38 v=96
19680 On ch=10 n=35 v=91
19680 On ch=10 n=44 v=109
19687 On ch=3 n=52 v=111
19713 Off ch=3 n=47 v=0
19757 On ch=1 n=83 v=79
19778 Off ch=10 n=44 v=0
19801 Off ch=2 n=38 v=0
19864 Off ch=10 n=38 v=0
19928 Off ch=3 n=52 v=0
19957 On ch=2 n=38 v=76
19974 Off ch=1 n=71 v=0
19990 On ch=10 n=44 v=111
20049 Off ch=10 n=44 v=0
20076 Off ch=1 n=83 v=0
20157 On ch=2 n=45 v=104
20158 On ch=3 n=50 v=89
20160 On ch=10 n=38 v=114
20160 On ch=10 n=42 v=116
20162 On ch=1 n=71 v=109
20220 Off ch=10 n=42 v=0
20227 Off ch=2 n=38 v=0
20261 On ch=1 n=83 v=90
20319 Off ch=10 n=35 v=0
20321 Off ch=2 n=45 v=0
20407 Off ch=3 n=50 v=0
20436 Off ch=1 n=71 v=0
20447 On ch=2 n=43 v=73
20454 On ch=3 n=52 v=96
20470 On ch=10 n=35 v=106
20470 On ch=10 n=44 v=114
20529 Off ch=10 n=44 v=0
20535 Off ch=1 n=83 v=0
20572 Off ch=2 n=43 v=0
20634 Off ch=10 n=38 v=0
20640 On ch=10 n=44 v=107
20641 On ch=2 n=37 v=114
20649 On ch=1 n=71 v=116
20690 On ch=1 n=83 v=95
20699 Off ch=3 n=52 v=0
20738 Off ch=10 n=44 v=0
20772 Off ch=2 n=37 v=0
20911 On ch=3 n=47 v=89
20931 On ch=2 n=37 v=44
20950 On ch=10 n=44 v=119
21009 Off ch=10 n=44 v=0
21095 Off ch=1 n=71 v=0
21120 On ch=10 n=38 v=119
21120 On ch=10 n=42 v=122
21127 On ch=2 n=40 v=83
21136 Off ch=1 n=83 v=0
21137 On ch=1 n=69 v=80
21148 Off ch=2 n=37 v=0
21151 On ch=1 n=81 v=53
21193 Off ch=10 n=42 v=0
21306 Off ch=10 n=35 v=0
21325 Off ch=3 n=47 v=0
21384 Off ch=2 n=40 v=0
21398 Off ch=1 n=69 v=0
21411 On ch=2 n=43 v=96
21412 Off ch=1 n=81 v=0
21415 On ch=3 n=47 v=91
21417 On ch=1 n=67 v=45
21430 On ch=10 n=35 v=68
21430 On ch=10 n=44 v=122
21456 On ch=1 n=79 v=24
21476 Off ch=10 n=35 v=0
21483 Off ch=10 n=44 v=0
21543 Off ch=2 n=43 v=0
21551 Off ch=1 n=67 v=0
21590 Off ch=1 n=79 v=0
21595 On ch=3 n=50 v=102
21599 On ch=2 n=37 v=116
21600 On ch=10 n=35 v=104
21600 On ch=10 n=44 v=107
21602 Off ch=3 n=47 v=0
21685 Off ch=10 n=44 v=0
21711 Off ch=2 n=37 v=0
21837 Off ch=10 n=38 v=0
21847 Off ch=3 n=50 v=0
21881 On ch=1 n=71 v=73
21884 On ch=2 n=37 v=93
21894 On ch=3 n=49 v=48
21910 On ch=10 n=44 v=116
21927 On ch=1 n=83 v=63
21969 Off ch=10 n=44 v=0
22066 On ch=3 n=47 v=85
22077 Off ch=3 n=49 v=0
22080 On ch=10 n=38 v=111
22080 On ch=10 n=42 v=111
22080 On ch=2 n=40 v=83
22085 Off ch=1 n=71 v=0
22089 Off ch=2 n=37 v=0
22131 Off ch=1 n=83 v=0
22146 Off ch=10 n=35 v=0
22152 Off ch=10 n=42 v=0
22307 Off ch=3 n=47 v=0
22345 On ch=1 n=71 v=109
22363 Off ch=2 n=40 v=0
22364 On ch=2 n=43 v=89
22373 On ch=3 n=45 v=83
22390 On ch=10 n=35 v=96
22390 On ch=10 n=44 v=114
22422 On ch=1 n=83 v=98
22456 Off ch=10 n=44 v=0
22531 Off ch=3 n=45 v=0
22542 Off ch=2 n=43 v=0
22552 On ch=3 n=43 v=111
22560 On ch=10 n=44 v=106
22568 On ch=2 n=40 v=89
22652 Off ch=10 n=44 v=0
22680 Off ch=2 n=40 v=0
22757 Off ch=3 n=43 v=0
22758 Off ch=10 n=38 v=0
22855 On ch=3 n=38 v=102
22859 On ch=2 n=40 v=73
22870 On ch=10 n=44 v=116
22929 Off ch=10 n=44 v=0
22984 Off ch=2 n=40 v=0
23040 On ch=10 n=38 v=114
23040 On ch=10 n=42 v=114
23040 On ch=1 n=67 v=106
23040 On ch=2 n=43 v=89
23079 Off ch=1 n=71 v=0
23119 Off ch=10 n=42 v=0
23139 On ch=1 n=79 v=79
23156 Off ch=1 n=83 v=0
23180 Off ch=1 n=67 v=0
23201 On ch=1 n=69 v=78
23218 On ch=1 n=81 v=55
23279 Off ch=1 n=79 v=0
23284 Off ch=3 n=38 v=0
23316 On ch=2 n=44 v=88
23350 On ch=10 n=44 v=92
23353 Off ch=2 n=43 v=0
23362 On ch=1 n=70 v=74
23363 Off ch=1 n=69 v=0
23380 Off ch=1 n=81 v=0
23390 Off ch=10 n=44 v=0
23391 Off ch=10 n=35 v=0
23397 On ch=1 n=82 v=59
23435 Off ch=2 n=44 v=0
23466 Off ch=1 n=70 v=0
23501 Off ch=1 n=82 v=0
23516 On ch=2 n=40 v=100
23517 On ch=3 n=52 v=111
23520 On ch=10 n=35 v=91
23520 On ch=10 n=44 v=111
23522 On ch=1 n=71 v=96
23560 On ch=1 n=83 v=56
23606 Off ch=10 n=44 v=0
23634 Off ch=2 n=40 v=0
23766 Off ch=3 n=52 v=0
23771 Off ch=10 n=38 v=0
23787 Off ch=1 n=71 v=0
23806 On ch=2 n=40 v=81
23825 Off ch=1 n=83 v=0
23830 On ch=10 n=44 v=114
23889 Off ch=10 n=44 v=0
23997 Off ch=2 n=40 v=0
24000 On ch=10 n=38 v=119
24000 On ch=10 n=42 v=107
24001 On ch=2 n=43 v=81
24011 On ch=3 n=50 v=102
24017 On ch=1 n=71 v=111
24066 Off ch=10 n=42 v=0
24099 On ch=1 n=83 v=92
24273 Off ch=1 n=71 v=0
24277 Off ch=3 n=50 v=0
24282 On ch=2 n=44 v=86
24297 Off ch=2 n=43 v=0
24310 On ch=10 n=44 v=111
24314 On ch=3 n=52 v=98
24350 Off ch=10 n=35 v=0
24355 Off ch=1 n=83 v=0
24376 Off ch=10 n=44 v=0
24387 Off ch=2 n=44 v=0
24480 On ch=10 n=35 v=74
24480 On ch=10 n=44 v=101
24483 On ch=2 n=40 v=76
24501 Off ch=3 n=52 v=0
24505 On ch=1 n=71 v=121
24546 On ch=1 n=83 v=96
24566 Off ch=10 n=44 v=0
24608 Off ch=2 n=40 v=0
24672 Off ch=10 n=38 v=0
24771 On ch=2 n=38 v=69
24790 On ch=10 n=44 v=114
24849 Off ch=10 n=44 v=0
24960 On ch=10 n=38 v=119
24960 On ch=10 n=42 v=116
24960 On ch=2 n=45 v=91
24962 Off ch=2 n=38 v=0
24965 On ch=1 n=69 v=98
24984 Off ch=1 n=71 v=0
25025 Off ch=1 n=83 v=0
25032 Off ch=10 n=42 v=0
25075 On ch=1 n=81 v=70
25125 Off ch=10 n=35 v=0
25197 Off ch=1 n=69 v=0
25241 On ch=2 n=43 v=69
25244 On ch=1 n=67 v=96
25264 On ch=3 n=47 v=78
25270 On ch=10 n=35 v=81
25270 On ch=10 n=44 v=116
25289 On ch=1 n=79 v=88
25303 Off ch=2 n=45 v=0
25307 Off ch=1 n=81 v=0
25329 Off ch=10 n=44 v=0
25343 Off ch=10 n=35 v=0
25360 Off ch=1 n=67 v=0
25405 Off ch=1 n=79 v=0
25410 On ch=1 n=69 v=119
25425 Off ch=2 n=43 v=0
25432 On ch=3 n=52 v=80
25433 Off ch=3 n=47 v=0
25440 On ch=10 n=35 v=94
25440 On ch=10 n=44 v=109
25450 On ch=2 n=40 v=87
25479 On ch=1 n=81 v=110
25539 Off ch=10 n=44 v=0
25582 Off ch=2 n=40 v=0
25656 Off ch=1 n=69 v=0
25681 Off ch=3 n=52 v=0
25694 On ch=1 n=67 v=87
25698 Off ch=10 n=38 v=0
25725 Off ch=1 n=81 v=0
25737 On ch=2 n=40 v=80
25750 On ch=10 n=44 v=116
25788 On ch=1 n=79 v=70
25809 Off ch=10 n=44 v=0
25915 On ch=3 n=50 v=91
25920 On ch=10 n=38 v=121
25920 On ch=10 n=42 v=119
25920 On ch=1 n=66 v=87
25927 Off ch=1 n=67 v=0
25931 On ch=2 n=45 v=83
25941 Off ch=2 n=40 v=0
25986 Off ch=10 n=42 v=0
26021 Off ch=1 n=79 v=0
26033 On ch=1 n=78 v=60
26085 Off ch=10 n=35 v=0
26149 On ch=1 n=64 v=98
26153 Off ch=1 n=66 v=0
26200 Off ch=3 n=50 v=0
26209 On ch=2 n=43 v=106
26218 On ch=3 n=52 v=78
26224 On ch=1 n=76 v=83
26230 On ch=10 n=35 v=89
26230 On ch=10 n=44 v=114
26233 Off ch=2 n=45 v=0
26266 Off ch=1 n=78 v=0
26303 Off ch=10 n=44 v=0
26341 Off ch=2 n=43 v=0
26389 On ch=2 n=40 v=96
26400 On ch=10 n=44 v=103
26438 Off ch=3 n=52 v=0
26492 Off ch=10 n=44 v=0
26501 Off ch=2 n=40 v=0
26565 Off ch=10 n=38 v=0
26642 Off ch=1 n=64 v=0
26681 On ch=2 n=40 v=78
26690 On ch=3 n=47 v=94
26710 On ch=10 n=44 v=119
26717 Off ch=1 n=76 v=0
26775 Off ch=10 n=44 v=0
26872 Off ch=2 n=40 v=0
26873 On ch=1 n=79 v=64
26875 On ch=2 n=45 v=85
26878 On ch=1 n=67 v=106
26880 On ch=10 n=38 v=121
26880 On ch=10 n=42 v=119
26952 Off ch=10 n=42 v=0
27013 Off ch=1 n=79 v=0
27018 Off ch=1 n=67 v=0
27039 On ch=1 n=69 v=78
27059 Off ch=2 n=45 v=0
27107 Off ch=3 n=47 v=0
27128 On ch=1 n=81 v=61
27145 Off ch=10 n=35 v=0
27157 On ch=2 n=43 v=85
27168 On ch=3 n=47 v=80
27190 On ch=10 n=44 v=114
27200 On ch=1 n=70 v=74
27202 Off ch=1 n=69 v=0
27244 On ch=1 n=82 v=55
27262 Off ch=10 n=44 v=0
27291 Off ch=1 n=81 v=0
27302 Off ch=2 n=43 v=0
27304 Off ch=1 n=70 v=0
27309 On ch=1 n=71 v=96
27333 On ch=3 n=52 v=96
27348 Off ch=1 n=82 v=0
27349 On ch=2 n=38 v=96
27360 On ch=10 n=35 v=89
27360 On ch=10 n=44 v=107
27370 Off ch=3 n=47 v=0
27427 On ch=1 n=83 v=67
27459 Off ch=10 n=44 v=0
27466 Off ch=10 n=38 v=0
27481 Off ch=2 n=38 v=0
27557 Off ch=3 n=52 v=0
27574 Off ch=1 n=71 v=0
27637 On ch=2 n=38 v=76
27670 On ch=10 n=44 v=114
27692 Off ch=1 n=83 v=0
27729 Off ch=10 n=44 v=0
27782 On ch=1 n=71 v=119
27827 On ch=3 n=50 v=91
27837 On ch=2 n=45 v=104
27840 On ch=10 n=38 v=123
27840 On ch=10 n=42 v=111
27858 On ch=1 n=83 v=90
27907 Off ch=2 n=38 v=0
27919 Off ch=10 n=42 v=0
28001 Off ch=2 n=45 v=0
28029 Off ch=1 n=71 v=0
28093 Off ch=3 n=50 v=0
28105 Off ch=1 n=83 v=0
28126 On ch=3 n=52 v=69
28127 On ch=2 n=43 v=73
28150 On ch=10 n=44 v=116
28189 Off ch=10 n=35 v=0
28216 Off ch=10 n=44 v=0
28252 Off ch=2 n=43 v=0
28290 On ch=1 n=71 v=109
28320 On ch=10 n=35 v=87
28320 On ch=10 n=44 v=106
28321 On ch=2 n=37 v=114
28358 On ch=1 n=83 v=98
28375 Off ch=3 n=52 v=0
28405 Off ch=10 n=44 v=0
28452 Off ch=2 n=37 v=0
28538 Off ch=10 n=38 v=0
28598 On ch=3 n=47 v=94
28611 On ch=2 n=37 v=44
28630 On ch=10 n=44 v=107
28702 Off ch=10 n=44 v=0
28721 Off ch=1 n=71 v=0
28789 Off ch=1 n=83 v=0
28798 On ch=1 n=69 v=87
28800 On ch=10 n=38 v=119
28800 On ch=10 n=42 v=90
28807 On ch=2 n=40 v=83
28828 Off ch=2 n=37 v=0
28879 Off ch=10 n=42 v=0
28894 On ch=1 n=81 v=58
28965 Off ch=10 n=35 v=0
29008 Off ch=3 n=47 v=0
29024 Off ch=1 n=69 v=0
29064 Off ch=2 n=40 v=0
29067 On ch=1 n=67 v=39
29091 On ch=2 n=43 v=96
29099 On ch=3 n=47 v=94
29110 On ch=10 n=35 v=96
29110 On ch=10 n=44 v=116
29120 Off ch=1 n=81 v=0
29164 On ch=1 n=79 v=16
29176 Off ch=10 n=44 v=0
29196 Off ch=10 n=35 v=0
29217 Off ch=1 n=67 v=0
29218 On ch=1 n=74 v=104
29223 Off ch=2 n=43 v=0
29266 On ch=1 n=86 v=85
29279 On ch=2 n=37 v=116
29280 On ch=10 n=35 v=96
29280 On ch=10 n=44 v=101
29281 On ch=3 n=50 v=98
29307 Off ch=3 n=47 v=0
29314 Off ch=1 n=79 v=0
29386 Off ch=10 n=44 v=0
29391 Off ch=2 n=37 v=0
29445 Off ch=1 n=74 v=0
29493 Off ch=1 n=86 v=0
29518 Off ch=10 n=38 v=0
29526 Off ch=3 n=50 v=0
29550 On ch=1 n=76 v=94
29564 On ch=2 n=37 v=93
29570 On ch=3 n=49 v=98
29590 On ch=10 n=44 v=114
29656 Off ch=10 n=44 v=0
29672 On ch=1 n=88 v=73
29714 Off ch=1 n=76 v=0
29742 On ch=3 n=47 v=94
29757 Off ch=3 n=49 v=0
29760 On ch=10 n=38 v=116
29760 On ch=10 n=42 v=109
29760 On ch=2 n=40 v=83
29769 Off ch=2 n=37 v=0
29836 Off ch=1 n=88 v=0
29839 Off ch=10 n=42 v=0
29885 Off ch=10 n=35 v=0
30020 Off ch=3 n=47 v=0
30023 On ch=1 n=88 v=83
30034 On ch=1 n=76 v=104
30043 Off ch=10 n=38 v=0
30043 Off ch=2 n=40 v=0
30044 On ch=2 n=43 v=89
30052 On ch=3 n=45 v=98
30070 On ch=10 n=35 v=102
30070 On ch=10 n=44 v=114
30135 Off ch=10 n=44 v=0
30207 Off ch=3 n=45 v=0
30222 Off ch=2 n=43 v=0
30223 Off ch=1 n=88 v=0
30234 Off ch=1 n=76 v=0
30237 Off ch=10 n=35 v=0
30237 On ch=10 n=35 v=104
30237 On ch=10 n=38 v=114
30239 On ch=3 n=43 v=109
30248 On ch=2 n=40 v=89
30360 Off ch=2 n=40 v=0
30432 Off ch=10 n=38 v=0
30440 Off ch=3 n=43 v=0
30539 On ch=2 n=40 v=73
30545 On ch=3 n=38 v=109
30547 On ch=10 n=44 v=119
30619 Off ch=10 n=44 v=0
30664 Off ch=2 n=40 v=0
30717 On ch=10 n=38 v=114
30717 On ch=10 n=42 v=119
30718 Off ch=3 n=38 v=0
30720 Off ch=10 n=35 v=0
30720 Off ch=10 n=38 v=0
30720 Off ch=10 n=42 v=0
30720 Meta TrkEnd
TrkEnd
